<?xml version="1.0" encoding="UTF-8" standalone="no"?><!DOCTYPE svg PUBLIC "-//W3C//DTD SVG 1.1//EN" "http://www.w3.org/Graphics/SVG/1.1/DTD/svg11.dtd"><svg width="100%" height="100%" viewBox="0 0 256 120" version="1.1" xmlns="http://www.w3.org/2000/svg" xmlns:xlink="http://www.w3.org/1999/xlink" xml:space="preserve" xmlns:serif="http://www.serif.com/" style="fill-rule:evenodd;clip-rule:evenodd;stroke-linejoin:round;stroke-miterlimit:1.41421;"><rect x="0" y="0" width="256" height="119.214" style="fill:#294454;"/><path d="M64.094,67.745l-11.768,0l0,-28.134l11.768,-6.614l0,34.748Zm-23.952,-43.85l0,54.657l26.817,-8.726l0,-38.442l-26.817,-7.489Z" style="fill:#f3cb02;fill-rule:nonzero;"/><path d="M99.401,32.751l1.159,0l0,7.23l9.389,0l0,-7.23l1.16,0l0,15.914l-1.16,0l0,-7.593l-9.389,0l0,7.593l-1.159,0l0,-15.914Z" style="fill:#fff;fill-rule:nonzero;"/><path d="M121.474,47.87c3.842,0 6.843,-3.024 6.843,-7.161c0,-4.093 -3.001,-7.162 -6.843,-7.162c-3.866,0 -6.844,3.069 -6.844,7.162c0,4.137 2.978,7.161 6.844,7.161m0,-15.414c4.501,0 8.048,3.592 8.048,8.253c0,4.682 -3.569,8.252 -8.071,8.252c-4.479,0 -8.026,-3.501 -8.026,-8.252c0,-4.706 3.57,-8.253 8.049,-8.253" style="fill:#fff;fill-rule:nonzero;"/><path d="M131.838,32.751l1.136,0l9.754,14.027l0,-14.027l1.159,0l0,15.914l-1.159,0l-9.731,-14.049l0,14.049l-1.159,0l0,-15.914Z" style="fill:#fff;fill-rule:nonzero;"/><path d="M159.844,34.616l-0.75,0.795c-0.864,-0.795 -2.274,-1.864 -4.911,-1.864c-3.933,0 -6.729,3.114 -6.729,7.207c0,4.138 2.819,7.116 6.707,7.116c2.864,0 4.501,-1.296 5.092,-1.887l0,-3.979l-3.819,0l0,-1.068l4.956,0l0,5.41c-1.728,1.91 -3.842,2.615 -6.229,2.615c-4.524,0 -7.935,-3.478 -7.935,-8.207c0,-4.706 3.411,-8.298 7.957,-8.298c2.978,0 4.843,1.364 5.661,2.16" style="fill:#fff;fill-rule:nonzero;"/><path d="M168.639,32.751l1.159,0l0,7.457l6.957,-7.457l1.478,0l-7.093,7.593l7.411,8.321l-1.5,0l-7.253,-8.093l0,8.093l-1.159,0l0,-15.914Z" style="fill:#fff;fill-rule:nonzero;"/><path d="M186.984,47.87c3.842,0 6.843,-3.024 6.843,-7.161c0,-4.093 -3.001,-7.162 -6.843,-7.162c-3.866,0 -6.844,3.069 -6.844,7.162c0,4.137 2.978,7.161 6.844,7.161m0,-15.414c4.501,0 8.048,3.592 8.048,8.253c0,4.682 -3.569,8.252 -8.071,8.252c-4.479,0 -8.026,-3.501 -8.026,-8.252c0,-4.706 3.57,-8.253 8.049,-8.253" style="fill:#fff;fill-rule:nonzero;"/><path d="M197.348,32.751l1.137,0l9.753,14.027l0,-14.027l1.159,0l0,15.914l-1.159,0l-9.731,-14.049l0,14.049l-1.159,0l0,-15.914Z" style="fill:#fff;fill-rule:nonzero;"/><path d="M225.354,34.616l-0.75,0.795c-0.864,-0.795 -2.274,-1.864 -4.911,-1.864c-3.933,0 -6.729,3.114 -6.729,7.207c0,4.138 2.819,7.116 6.707,7.116c2.864,0 4.501,-1.296 5.092,-1.887l0,-3.979l-3.819,0l0,-1.068l4.956,0l0,5.41c-1.728,1.91 -3.842,2.615 -6.229,2.615c-4.524,0 -7.935,-3.478 -7.935,-8.207c0,-4.706 3.411,-8.298 7.957,-8.298c2.979,0 4.843,1.364 5.661,2.16" style="fill:#fff;fill-rule:nonzero;"/><path d="M105.899,65.775c2.905,0 5.085,-2.263 5.085,-5.376c0,-3.071 -2.18,-5.375 -5.085,-5.375c-2.926,0 -5.085,2.304 -5.085,5.375c0,3.113 2.159,5.376 5.085,5.376m0,-12.909c4.337,0 7.471,3.3 7.471,7.533c0,4.275 -3.134,7.534 -7.492,7.534c-4.338,0 -7.472,-3.237 -7.472,-7.534c0,-4.255 3.155,-7.533 7.493,-7.533" style="fill:#f3cb02;fill-rule:nonzero;"/><path d="M119.034,59.901c1.515,0 2.552,-0.954 2.552,-2.407c0,-1.432 -1.037,-2.346 -2.531,-2.346l-1.661,0l0,4.753l1.64,0Zm-3.944,-6.766l4.213,0c2.74,0 4.65,1.743 4.65,4.359c0,2.573 -1.993,4.42 -4.629,4.42l-1.93,0l0,5.749l-2.304,0l0,-14.528Z" style="fill:#f3cb02;fill-rule:nonzero;"/><path d="M125.466,53.135l7.181,0l0,2.076l-4.878,0l0,4.047l4.234,0l0,2.055l-4.234,0l0,4.275l5.085,0l0,2.075l-7.388,0l0,-14.528Z" style="fill:#f3cb02;fill-rule:nonzero;"/><path d="M134.845,53.135l2.324,0l7.119,10.917l0,-10.917l2.263,0l0,14.528l-2.283,0l-7.14,-10.854l0,10.854l-2.283,0l0,-14.528Z" style="fill:#f3cb02;fill-rule:nonzero;"/><path d="M154.766,63.741c0.395,1.037 1.245,2.054 2.844,2.054c1.307,0 2.179,-0.726 2.179,-1.95c0,-3.072 -6.538,-2.387 -6.538,-7.057c0,-2.262 1.681,-3.922 4.359,-3.922c2.76,0 3.943,1.95 4.296,2.967l-1.91,0.851c-0.332,-0.706 -0.996,-1.702 -2.428,-1.702c-1.287,0 -2.013,0.789 -2.013,1.786c0,2.863 6.579,2.344 6.579,6.91c0,2.429 -1.764,4.255 -4.628,4.255c-2.968,0 -4.255,-1.993 -4.691,-3.279l1.951,-0.913Z" style="fill:#f3cb02;fill-rule:nonzero;"/><path d="M170.579,65.775c2.906,0 5.085,-2.263 5.085,-5.376c0,-3.071 -2.179,-5.375 -5.085,-5.375c-2.926,0 -5.084,2.304 -5.084,5.375c0,3.113 2.158,5.376 5.084,5.376m0,-12.909c4.338,0 7.472,3.3 7.472,7.533c0,4.275 -3.134,7.534 -7.492,7.534c-4.338,0 -7.472,-3.237 -7.472,-7.534c0,-4.255 3.155,-7.533 7.492,-7.533" style="fill:#f3cb02;fill-rule:nonzero;"/><path d="M179.709,62.33l0,-9.195l2.303,0l0,9.173c0,2.138 1.163,3.487 3.321,3.487c2.138,0 3.321,-1.369 3.321,-3.507l0,-9.153l2.283,0l0,9.173c0,3.301 -2.076,5.625 -5.604,5.625c-3.632,0 -5.624,-2.241 -5.624,-5.603" style="fill:#f3cb02;fill-rule:nonzero;"/><path d="M197.244,59.694c1.453,0 2.511,-0.809 2.511,-2.284c0,-1.348 -0.83,-2.261 -2.511,-2.261l-1.556,0l0,4.545l1.556,0Zm-3.86,-6.559l3.902,0c3.113,0 4.856,1.848 4.856,4.275c0,1.682 -0.892,3.135 -2.366,3.737l3.528,6.516l-2.552,0l-3.051,-5.998l-2.013,0l0,5.998l-2.304,0l0,-14.528Z" style="fill:#f3cb02;fill-rule:nonzero;"/><path d="M215.859,66.418c-0.726,0.56 -2.325,1.515 -4.566,1.515c-4.4,0 -7.472,-3.259 -7.472,-7.534c0,-4.275 3.196,-7.533 7.451,-7.533c2.055,0 3.549,0.768 4.4,1.411l-0.685,2.034c-0.622,-0.478 -1.951,-1.287 -3.653,-1.287c-3.03,0 -5.126,2.366 -5.126,5.375c0,3.01 2.034,5.376 5.147,5.376c1.889,0 3.238,-0.934 3.819,-1.37l0.685,2.013Z" style="fill:#f3cb02;fill-rule:nonzero;"/><path d="M217.517,53.135l7.181,0l0,2.076l-4.877,0l0,4.047l4.234,0l0,2.055l-4.234,0l0,4.275l5.085,0l0,2.075l-7.389,0l0,-14.528Z" style="fill:#f3cb02;fill-rule:nonzero;"/><path d="M111.386,84.469c-0.782,0.603 -2.503,1.631 -4.916,1.631c-4.737,0 -8.044,-3.508 -8.044,-8.111c0,-4.603 3.441,-8.112 8.022,-8.112c2.212,0 3.821,0.828 4.737,1.52l-0.737,2.19c-0.671,-0.514 -2.101,-1.386 -3.933,-1.386c-3.263,0 -5.519,2.548 -5.519,5.788c0,3.24 2.189,5.787 5.541,5.787c2.033,0 3.486,-1.005 4.112,-1.475l0.737,2.168Z" style="fill:#f3cb02;fill-rule:nonzero;"/><path d="M120.366,83.776c3.129,0 5.475,-2.435 5.475,-5.787c0,-3.307 -2.346,-5.788 -5.475,-5.788c-3.15,0 -5.474,2.481 -5.474,5.788c0,3.352 2.324,5.787 5.474,5.787m0,-13.899c4.67,0 8.045,3.553 8.045,8.112c0,4.603 -3.375,8.111 -8.067,8.111c-4.67,0 -8.044,-3.486 -8.044,-8.111c0,-4.581 3.396,-8.112 8.066,-8.112" style="fill:#f3cb02;fill-rule:nonzero;"/><path d="M130.24,70.168l2.503,0l7.665,11.753l0,-11.753l2.435,0l0,15.641l-2.458,0l-7.687,-11.686l0,11.686l-2.458,0l0,-15.641Z" style="fill:#f3cb02;fill-rule:nonzero;"/><path d="M145.544,70.168l7.709,0l0,2.235l-5.228,0l0,4.536l4.58,0l0,2.212l-4.58,0l0,6.658l-2.481,0l0,-15.641Z" style="fill:#f3cb02;fill-rule:nonzero;"/><path d="M155.464,70.168l7.732,0l0,2.235l-5.252,0l0,4.357l4.559,0l0,2.212l-4.559,0l0,4.603l5.475,0l0,2.234l-7.955,0l0,-15.641Z" style="fill:#f3cb02;fill-rule:nonzero;"/><path d="M169.741,77.229c1.564,0 2.703,-0.871 2.703,-2.458c0,-1.452 -0.893,-2.436 -2.703,-2.436l-1.676,0l0,4.894l1.676,0Zm-4.156,-7.061l4.2,0c3.352,0 5.229,1.989 5.229,4.603c0,1.81 -0.961,3.374 -2.547,4.022l3.799,7.017l-2.749,0l-3.285,-6.458l-2.167,0l0,6.458l-2.48,0l0,-15.642Z" style="fill:#f3cb02;fill-rule:nonzero;"/><path d="M177.671,70.168l7.732,0l0,2.235l-5.251,0l0,4.357l4.558,0l0,2.212l-4.558,0l0,4.603l5.474,0l0,2.234l-7.955,0l0,-15.641Z" style="fill:#f3cb02;fill-rule:nonzero;"/><path d="M187.77,70.168l2.502,0l7.665,11.753l0,-11.753l2.435,0l0,15.641l-2.457,0l-7.687,-11.686l0,11.686l-2.458,0l0,-15.641Z" style="fill:#f3cb02;fill-rule:nonzero;"/><path d="M215.185,84.469c-0.782,0.603 -2.503,1.631 -4.916,1.631c-4.737,0 -8.044,-3.508 -8.044,-8.111c0,-4.603 3.441,-8.112 8.022,-8.112c2.212,0 3.821,0.828 4.737,1.52l-0.737,2.19c-0.671,-0.514 -2.101,-1.386 -3.933,-1.386c-3.262,0 -5.519,2.548 -5.519,5.788c0,3.24 2.19,5.787 5.541,5.787c2.033,0 3.486,-1.005 4.112,-1.475l0.737,2.168Z" style="fill:#f3cb02;fill-rule:nonzero;"/><path d="M216.97,70.168l7.732,0l0,2.235l-5.252,0l0,4.357l4.559,0l0,2.212l-4.559,0l0,4.603l5.475,0l0,2.234l-7.955,0l0,-15.641Z" style="fill:#f3cb02;fill-rule:nonzero;"/><path d="M71.902,78.552l10.113,-3.384l0,-3.336l-20.082,6.72l20.082,6.72l0,-3.336l-10.113,-3.384Z" style="fill:#f3cb02;fill-rule:nonzero;"/><path d="M30.1,81.879l0,3.36l10.041,3.36l-10.041,3.36l0,3.36l20.083,-6.72l-20.083,-6.72Z" style="fill:#f3cb02;fill-rule:nonzero;"/></svg>