<?xml version="1.0" encoding="UTF-8" standalone="no"?><!DOCTYPE svg PUBLIC "-//W3C//DTD SVG 1.1//EN" "http://www.w3.org/Graphics/SVG/1.1/DTD/svg11.dtd"><svg width="100%" height="100%" viewBox="0 0 1280 500" version="1.1" xmlns="http://www.w3.org/2000/svg" xmlns:xlink="http://www.w3.org/1999/xlink" xml:space="preserve" xmlns:serif="http://www.serif.com/" style="fill-rule:evenodd;clip-rule:evenodd;stroke-linejoin:round;stroke-miterlimit:1.41421;"><path d="M277.045,296.052l-67.728,0l0,-161.921l67.728,-38.068l0,199.989Zm-137.856,-252.374l0,314.575l154.348,-50.225l0,-221.246l-154.348,-43.104Z" style="fill:#f3cb02;fill-rule:nonzero;"/><path d="M480.249,94.648l6.674,0l0,41.612l54.038,0l0,-41.612l6.674,0l0,91.594l-6.674,0l0,-43.702l-54.038,0l0,43.702l-6.674,0l0,-91.594Z" style="fill:#294454;fill-rule:nonzero;"/><path d="M607.288,181.663c22.112,0 39.385,-17.403 39.385,-41.216c0,-23.554 -17.273,-41.219 -39.385,-41.219c-22.245,0 -39.386,17.665 -39.386,41.219c0,23.813 17.141,41.216 39.386,41.216m0,-88.714c25.907,0 46.32,20.673 46.32,47.498c0,26.952 -20.542,47.495 -46.451,47.495c-25.776,0 -46.19,-20.147 -46.19,-47.495c0,-27.085 20.544,-47.498 46.321,-47.498" style="fill:#294454;fill-rule:nonzero;"/><path d="M666.937,94.648l6.543,0l56.133,80.733l0,-80.733l6.673,0l0,91.594l-6.673,0l-56.004,-80.861l0,80.861l-6.672,0l0,-91.594Z" style="fill:#294454;fill-rule:nonzero;"/><path d="M828.126,105.38l-4.317,4.58c-4.973,-4.58 -13.086,-10.732 -28.264,-10.732c-22.636,0 -38.73,17.926 -38.73,41.479c0,23.815 16.226,40.955 38.6,40.955c16.486,0 25.908,-7.458 29.308,-10.861l0,-22.898l-21.981,0l0,-6.149l28.524,0l0,31.141c-9.943,10.992 -22.112,15.047 -35.851,15.047c-26.038,0 -45.665,-20.017 -45.665,-47.235c0,-27.085 19.627,-47.759 45.795,-47.759c17.142,0 27.871,7.852 32.581,12.432" style="fill:#294454;fill-rule:nonzero;"/><path d="M878.741,94.648l6.674,0l0,42.919l40.039,-42.919l8.506,0l-40.824,43.703l42.654,47.891l-8.634,0l-41.741,-46.581l0,46.581l-6.674,0l0,-91.594Z" style="fill:#294454;fill-rule:nonzero;"/><path d="M984.324,181.663c22.113,0 39.385,-17.403 39.385,-41.216c0,-23.554 -17.272,-41.219 -39.385,-41.219c-22.245,0 -39.385,17.665 -39.385,41.219c0,23.813 17.14,41.216 39.385,41.216m0,-88.714c25.907,0 46.32,20.673 46.32,47.498c0,26.952 -20.542,47.495 -46.45,47.495c-25.777,0 -46.19,-20.147 -46.19,-47.495c0,-27.085 20.543,-47.498 46.32,-47.498" style="fill:#294454;fill-rule:nonzero;"/><path d="M1043.97,94.648l6.544,0l56.133,80.733l0,-80.733l6.672,0l0,91.594l-6.672,0l-56.003,-80.861l0,80.861l-6.674,0l0,-91.594Z" style="fill:#294454;fill-rule:nonzero;"/><path d="M1205.16,105.38l-4.317,4.58c-4.972,-4.58 -13.085,-10.732 -28.264,-10.732c-22.636,0 -38.73,17.926 -38.73,41.479c0,23.815 16.227,40.955 38.602,40.955c16.485,0 25.907,-7.458 29.308,-10.861l0,-22.898l-21.982,0l0,-6.149l28.524,0l0,31.141c-9.943,10.992 -22.113,15.047 -35.85,15.047c-26.039,0 -45.667,-20.017 -45.667,-47.235c0,-27.085 19.628,-47.759 45.795,-47.759c17.143,0 27.871,7.852 32.581,12.432" style="fill:#294454;fill-rule:nonzero;"/><path d="M517.649,284.713c16.723,0 29.265,-13.022 29.265,-30.937c0,-17.679 -12.542,-30.938 -29.265,-30.938c-16.842,0 -29.266,13.259 -29.266,30.938c0,17.915 12.424,30.937 29.266,30.937m0,-74.297c24.963,0 43.001,18.993 43.001,43.36c0,24.605 -18.038,43.357 -43.121,43.357c-24.966,0 -43.003,-18.63 -43.003,-43.357c0,-24.489 18.157,-43.36 43.123,-43.36" style="fill:#f3cb02;fill-rule:nonzero;"/><path d="M593.245,250.907c8.72,0 14.691,-5.492 14.691,-13.854c0,-8.243 -5.971,-13.499 -14.571,-13.499l-9.557,0l0,27.353l9.437,0Zm-22.696,-38.941l24.248,0c15.767,0 26.758,10.034 26.758,25.087c0,14.81 -11.468,25.442 -26.639,25.442l-11.108,0l0,33.087l-13.259,0l0,-83.616Z" style="fill:#f3cb02;fill-rule:nonzero;"/><path d="M630.264,211.967l41.331,0l0,11.946l-28.072,0l0,23.293l24.368,0l0,11.825l-24.368,0l0,24.607l29.266,0l0,11.945l-42.525,0l0,-83.616Z" style="fill:#f3cb02;fill-rule:nonzero;"/><path d="M684.247,211.967l13.377,0l40.972,62.831l0,-62.831l13.019,0l0,83.616l-13.137,0l-41.092,-62.472l0,62.472l-13.139,0l0,-83.616Z" style="fill:#f3cb02;fill-rule:nonzero;"/><path d="M798.901,273.007c2.269,5.972 7.166,11.824 16.365,11.824c7.525,0 12.542,-4.18 12.542,-11.226c0,-17.679 -37.627,-13.739 -37.627,-40.613c0,-13.022 9.675,-22.576 25.085,-22.576c15.887,0 22.696,11.226 24.725,17.08l-10.989,4.897c-1.911,-4.062 -5.734,-9.794 -13.974,-9.794c-7.407,0 -11.588,4.539 -11.588,10.274c0,16.482 37.865,13.496 37.865,39.775c0,13.976 -10.152,24.487 -26.636,24.487c-17.082,0 -24.488,-11.468 -26.996,-18.873l11.228,-5.255Z" style="fill:#f3cb02;fill-rule:nonzero;"/><path d="M889.912,284.713c16.724,0 29.265,-13.022 29.265,-30.937c0,-17.679 -12.541,-30.938 -29.265,-30.938c-16.842,0 -29.265,13.259 -29.265,30.938c0,17.915 12.423,30.937 29.265,30.937m0,-74.297c24.964,0 43.001,18.993 43.001,43.36c0,24.605 -18.037,43.357 -43.121,43.357c-24.965,0 -43.003,-18.63 -43.003,-43.357c0,-24.489 18.158,-43.36 43.123,-43.36" style="fill:#f3cb02;fill-rule:nonzero;"/><path d="M942.454,264.885l0,-52.919l13.259,0l0,52.797c0,12.305 6.689,20.068 19.111,20.068c12.304,0 19.113,-7.883 19.113,-20.186l0,-52.679l13.139,0l0,52.797c0,18.995 -11.945,32.372 -32.252,32.372c-20.904,0 -32.37,-12.9 -32.37,-32.25" style="fill:#f3cb02;fill-rule:nonzero;"/><path d="M1043.38,249.714c8.362,0 14.452,-4.657 14.452,-13.141c0,-7.763 -4.776,-13.018 -14.452,-13.018l-8.959,0l0,26.159l8.959,0Zm-22.218,-37.747l22.456,0c17.919,0 27.952,10.632 27.952,24.606c0,9.676 -5.136,18.038 -13.617,21.503l20.306,37.507l-14.692,0l-17.559,-34.521l-11.587,0l0,34.521l-13.259,0l0,-83.616Z" style="fill:#f3cb02;fill-rule:nonzero;"/><path d="M1150.51,288.415c-4.18,3.226 -13.379,8.72 -26.279,8.72c-25.324,0 -43.001,-18.755 -43.001,-43.36c0,-24.607 18.394,-43.359 42.881,-43.359c11.827,0 20.425,4.42 25.324,8.121l-3.942,11.707c-3.585,-2.748 -11.228,-7.405 -21.023,-7.405c-17.439,0 -29.504,13.616 -29.504,30.936c0,17.321 11.706,30.938 29.624,30.938c10.869,0 18.634,-5.376 21.979,-7.885l3.941,11.587Z" style="fill:#f3cb02;fill-rule:nonzero;"/><path d="M1160.06,211.967l41.33,0l0,11.946l-28.07,0l0,23.293l24.367,0l0,11.825l-24.367,0l0,24.607l29.264,0l0,11.945l-42.524,0l0,-83.616Z" style="fill:#f3cb02;fill-rule:nonzero;"/><path d="M549.23,392.304c-4.5,3.475 -14.402,9.388 -28.292,9.388c-27.266,0 -46.3,-20.19 -46.3,-46.682c0,-26.492 19.806,-46.684 46.171,-46.684c12.732,0 21.991,4.76 27.264,8.744l-4.244,12.604c-3.859,-2.957 -12.089,-7.973 -22.634,-7.973c-18.777,0 -31.766,14.661 -31.766,33.309c0,18.648 12.603,33.31 31.894,33.31c11.702,0 20.062,-5.789 23.664,-8.489l4.243,12.473Z" style="fill:#f3cb02;fill-rule:nonzero;"/><path d="M600.916,388.319c18.005,0 31.507,-14.019 31.507,-33.308c0,-19.034 -13.502,-33.31 -31.507,-33.31c-18.134,0 -31.509,14.276 -31.509,33.31c0,19.289 13.375,33.308 31.509,33.308m0,-79.994c26.878,0 46.298,20.45 46.298,46.686c0,26.49 -19.42,46.682 -46.427,46.682c-26.879,0 -46.299,-20.062 -46.299,-46.682c0,-26.367 19.548,-46.686 46.428,-46.686" style="fill:#f3cb02;fill-rule:nonzero;"/><path d="M657.745,309.996l14.403,0l44.111,67.648l0,-67.648l14.018,0l0,90.025l-14.145,0l-44.241,-67.262l0,67.262l-14.146,0l0,-90.025Z" style="fill:#f3cb02;fill-rule:nonzero;"/><path d="M745.825,309.996l44.368,0l0,12.863l-30.094,0l0,26.108l26.365,0l0,12.732l-26.365,0l0,38.322l-14.274,0l0,-90.025Z" style="fill:#f3cb02;fill-rule:nonzero;"/><path d="M802.916,309.996l44.499,0l0,12.863l-30.225,0l0,25.079l26.237,0l0,12.73l-26.237,0l0,26.494l31.509,0l0,12.859l-45.783,0l0,-90.025Z" style="fill:#f3cb02;fill-rule:nonzero;"/><path d="M885.085,350.637c9.002,0 15.561,-5.016 15.561,-14.148c0,-8.358 -5.144,-14.016 -15.561,-14.016l-9.646,0l0,28.164l9.646,0Zm-23.92,-40.641l24.178,0c19.291,0 30.093,11.447 30.093,26.493c0,10.419 -5.529,19.42 -14.661,23.149l21.864,40.384l-15.82,0l-18.905,-37.168l-12.475,0l0,37.168l-14.274,0l0,-90.026Z" style="fill:#f3cb02;fill-rule:nonzero;"/><path d="M930.729,309.996l44.499,0l0,12.863l-30.225,0l0,25.079l26.238,0l0,12.73l-26.238,0l0,26.494l31.511,0l0,12.859l-45.785,0l0,-90.025Z" style="fill:#f3cb02;fill-rule:nonzero;"/><path d="M988.85,309.996l14.403,0l44.111,67.648l0,-67.648l14.018,0l0,90.025l-14.145,0l-44.241,-67.262l0,67.262l-14.146,0l0,-90.025Z" style="fill:#f3cb02;fill-rule:nonzero;"/><path d="M1146.64,392.304c-4.501,3.475 -14.404,9.388 -28.293,9.388c-27.265,0 -46.299,-20.19 -46.299,-46.682c0,-26.492 19.806,-46.684 46.171,-46.684c12.732,0 21.989,4.76 27.263,8.744l-4.243,12.604c-3.859,-2.957 -12.091,-7.973 -22.634,-7.973c-18.777,0 -31.767,14.661 -31.767,33.309c0,18.648 12.604,33.31 31.895,33.31c11.702,0 20.062,-5.789 23.662,-8.489l4.245,12.473Z" style="fill:#f3cb02;fill-rule:nonzero;"/><path d="M1156.91,309.996l44.498,0l0,12.863l-30.224,0l0,25.079l26.238,0l0,12.73l-26.238,0l0,26.494l31.509,0l0,12.859l-45.783,0l0,-90.025Z" style="fill:#f3cb02;fill-rule:nonzero;"/><path d="M321.985,358.254l58.204,-19.475l0,-19.202l-115.583,38.677l115.583,38.675l0,-19.2l-58.204,-19.475Z" style="fill:#f3cb02;fill-rule:nonzero;"/><path d="M81.397,377.398l0,19.338l57.792,19.339l-57.792,19.338l0,19.337l115.583,-38.675l-115.583,-38.677Z" style="fill:#f3cb02;fill-rule:nonzero;"/></svg>